<svg xmlns="http://www.w3.org/2000/svg" data-name="Layer 1" viewBox="0 0 100 125" x="0px" y="0px"><defs><style>
      .cls-1 {
        fill-rule: evenodd;
      }
    </style></defs><path class="cls-1" d="m52.353,92.716c.431.499.377,1.253-.122,1.684s-1.253.377-1.684-.122l-3.47-4.018c-.463-.521-.409-1.284.125-1.733l4.019-3.47c.499-.431,1.253-.377,1.684.122s.377,1.253-.122,1.684l-1.66,1.433c17.746-.501,32.874-13.226,36.416-30.612.132-.646.762-1.063,1.408-.931s1.063.762.931,1.408c-3.804,18.674-20.176,32.267-39.269,32.535l1.744,2.019h0ZM47.647,7.284c-.431-.499-.377-1.253.122-1.684s1.253-.377,1.684.122l3.471,4.019c.463.521.406,1.286-.127,1.734l-4.016,3.469c-.499.431-1.253.377-1.684-.122s-.377-1.253.122-1.684l1.66-1.433c-17.746.501-32.874,13.226-36.416,30.612-.132.646-.762,1.063-1.408.931s-1.063-.762-.931-1.408C13.926,23.163,30.298,9.57,49.39,9.303l-1.744-2.019h0Zm-1.09,43.275c-1.744,0-2.978-1.695-2.462-3.348l-1.298-1.298h-4.956c-2.847,7.927,2.573,16.457,10.963,17.228v-4.956h-1.828c-.806,1.534-2.874,1.859-4.108.626-1.621-1.621-.466-4.403,1.824-4.403.978,0,1.847.548,2.285,1.381h3.026c.661,0,1.198.536,1.198,1.198v6.154c4.111-.378,7.711-2.691,9.81-6.101h-4.3c-.334,0-.637-.137-.854-.358l-1.642-1.642c-1.653.516-3.348-.719-3.348-2.462,0-2.289,2.782-3.445,4.403-1.824.67.67.928,1.666.639,2.592l1.298,1.298h4.956c2.847-7.927-2.573-16.457-10.963-17.228v4.956h1.828c.806-1.534,2.875-1.859,4.108-.626,1.621,1.622.466,4.403-1.824,4.403-.978,0-1.847-.548-2.285-1.381h-3.026c-.661,0-1.198-.536-1.198-1.198v-6.154c-4.111.378-7.711,2.691-9.81,6.101h4.3c.334,0,.637.137.854.358l1.642,1.642c1.653-.516,3.348.719,3.348,2.462,0,1.424-1.155,2.579-2.579,2.579h0Zm-10.644-6.291c-2.47,5.781-1.132,12.446,3.26,16.838,5.98,5.98,15.675,5.98,21.655,0,5.944-5.944,6.019-15.636,0-21.655-5.98-5.98-15.675-5.98-21.655,0-1.292,1.292-2.569,3.099-3.26,4.817h0Zm43.54.112c-.661,0-1.198-.536-1.198-1.198s.536-1.198,1.198-1.198h8.981c.661,0,1.198.536,1.198,1.198s-.536,1.198-1.198,1.198h-8.981Zm-12.09-27.498c-.661,0-1.198-.536-1.198-1.198s.536-1.198,1.198-1.198h5.795c.661,0,1.198.536,1.198,1.198s-.536,1.198-1.198,1.198h-5.795Zm0,6.875c-.661,0-1.198-.536-1.198-1.198s.536-1.198,1.198-1.198h9.019c.661,0,1.198.536,1.198,1.198s-.536,1.198-1.198,1.198h-9.019Zm8.559,13.749c-.661,0-1.198-.536-1.198-1.198s.536-1.198,1.198-1.198h12.512c.661,0,1.198.536,1.198,1.198s-.536,1.198-1.198,1.198h-12.512Zm-3.812-6.875c-.661,0-1.198-.536-1.198-1.198s.536-1.198,1.198-1.198h16.324c.661,0,1.198.536,1.198,1.198s-.536,1.198-1.198,1.198h-16.324ZM7.396,86.579c.002.694,1.285,1.455,3.358,2.123,5.338,1.721,14.168,1.721,19.507,0,2.075-.669,3.358-1.43,3.358-2.124v-5.968c-5.767,3.4-20.456,3.4-26.223,0v5.969h0Zm26.223-9.229c-.009.705-1.273,1.456-3.358,2.128-5.338,1.721-14.169,1.721-19.507,0-2.075-.669-3.358-1.43-3.358-2.124v-5.968c5.605,3.305,19.511,3.392,25.685.303l.539.539v5.122h0ZM7.396,58.904c0,.697,1.284,1.457,3.358,2.126,5.087,1.64,13.879,1.799,19.467.011-.769-1.409-1.378-2.88-1.831-4.434l-4.474-.981c-.591-.088-2.682-.135-3.409-.135-3.834,0-7.281.493-9.753,1.29-2.074.668-3.357,1.429-3.358,2.123h0Zm0,3.258v5.969c.002.694,1.285,1.454,3.358,2.123,4.668,1.505,11.819,1.663,17.016.632,1.361-.27,2.549-.609,3.508-.998l-3.386-3.386c-.424-.424-.464-1.087-.118-1.556l.621-.97c-5.713,1.167-13.314.958-18.371-.672-1.01-.326-1.894-.709-2.628-1.141h0Zm22.87,3.325l4.526,4.526,3.693-2.365c.371-.252.869-.284,1.281-.041.812.48,1.659.906,2.538,1.27.847.351,1.711.644,2.585.873.467.08.862.435.968.927l.944,4.309h6.398l.948-4.309c.093-.428.418-.788.871-.904,1.821-.466,3.597-1.21,5.217-2.168.376-.222.861-.229,1.254.023l3.72,2.383,4.526-4.526-2.365-3.693c-.252-.371-.284-.869-.041-1.281.48-.812.906-1.659,1.27-2.538.351-.847.644-1.711.873-2.585.08-.467.435-.862.927-.968l4.309-.944v-6.398l-4.309-.948c-.428-.093-.788-.418-.904-.871-.466-1.821-1.21-3.597-2.168-5.217-.222-.376-.229-.861.023-1.254l2.382-3.72-4.526-4.526-3.693,2.365c-.371.252-.869.284-1.281.041-.812-.48-1.659-.906-2.538-1.27-.847-.351-1.711-.644-2.585-.873-.467-.08-.862-.435-.968-.927l-.944-4.309h-6.398l-.948,4.309c-.093.428-.418.788-.871.904-1.822.466-3.596,1.21-5.217,2.168-.376.222-.861.229-1.254-.023l-3.72-2.383-4.526,4.526,2.365,3.693c.252.371.284.869.041,1.281-.48.812-.906,1.659-1.27,2.538-.351.847-.644,1.711-.873,2.585-.08.467-.435.862-.927.968l-4.309.944v6.398l4.309.948c.442.096.792.432.904.871.466,1.822,1.21,3.596,2.168,5.217.222.376.229.861-.023,1.254-.794,1.24-1.588,2.48-2.383,3.72h0ZM63.19,28.998V11.299c0-.71.582-1.292,1.291-1.292h15.415v9.02c0,2.032,1.655,3.687,3.687,3.687h9.021v24.853c0,.71-.582,1.292-1.291,1.292h-14.209v-2.742c0-.552-.384-1.048-.945-1.17l-4.549-.997c-.458-1.571-1.076-3.057-1.856-4.479l2.472-3.86c.345-.469.306-1.132-.118-1.556l-5.886-5.883c-.389-.389-1.009-.47-1.491-.161l-1.54.986h0Zm19.102-17.297v7.327c0,.71.582,1.292,1.291,1.292h7.327l-8.618-8.618Z"/><text x="0" y="115" fill="#000000" font-size="5px" font-weight="bold" font-family="'Helvetica Neue', Helvetica, Arial-Unicode, Arial, Sans-serif">Created by Nanang Hermawan</text><text x="0" y="120" fill="#000000" font-size="5px" font-weight="bold" font-family="'Helvetica Neue', Helvetica, Arial-Unicode, Arial, Sans-serif">from the Noun Project</text></svg>