<svg xmlns="http://www.w3.org/2000/svg" xmlns:xlink="http://www.w3.org/1999/xlink" width="50" zoomAndPan="magnify" viewBox="0 0 37.5 37.499999" height="50" preserveAspectRatio="xMidYMid meet" version="1.0"><defs><g/></defs><g fill="#000000" fill-opacity="1"><g transform="translate(2.48638, 25.164472)"><g><path d="M 7.640625 -13.1875 C 5.660156 -13.1875 4.671875 -11.285156 4.671875 -7.484375 L 4.671875 -5.96875 C 4.671875 -4.164062 4.929688 -2.75 5.453125 -1.71875 C 5.984375 -0.695312 6.753906 -0.1875 7.765625 -0.1875 C 9.171875 -0.1875 10.457031 -1.550781 11.625 -4.28125 L 11.96875 -4.28125 L 11.84375 -0.015625 L 11.625 -0.015625 C 11.550781 -0.160156 11.484375 -0.257812 11.421875 -0.3125 C 11.359375 -0.375 11.265625 -0.40625 11.140625 -0.40625 C 11.015625 -0.40625 10.550781 -0.304688 9.75 -0.109375 C 8.945312 0.0859375 8.132812 0.1875 7.3125 0.1875 C 5.238281 0.1875 3.628906 -0.367188 2.484375 -1.484375 C 1.347656 -2.609375 0.78125 -4.289062 0.78125 -6.53125 C 0.78125 -8.78125 1.375 -10.515625 2.5625 -11.734375 C 3.757812 -12.960938 5.363281 -13.578125 7.375 -13.578125 C 8.144531 -13.578125 8.898438 -13.476562 9.640625 -13.28125 C 10.390625 -13.082031 10.828125 -12.984375 10.953125 -12.984375 C 11.085938 -12.984375 11.1875 -13.007812 11.25 -13.0625 C 11.3125 -13.125 11.378906 -13.222656 11.453125 -13.359375 L 11.671875 -13.359375 L 11.8125 -9.21875 L 11.46875 -9.21875 C 10.894531 -10.507812 10.304688 -11.492188 9.703125 -12.171875 C 9.097656 -12.847656 8.410156 -13.1875 7.640625 -13.1875 Z M 7.640625 -13.1875 "/></g></g></g><g fill="#000000" fill-opacity="1"><g transform="translate(15.65258, 25.164472)"><g><path d="M 2.515625 0.1875 C 1.960938 0.1875 1.546875 0.0234375 1.265625 -0.296875 C 0.992188 -0.617188 0.859375 -1.007812 0.859375 -1.46875 C 0.859375 -1.9375 1 -2.328125 1.28125 -2.640625 C 1.570312 -2.960938 1.976562 -3.125 2.5 -3.125 C 3.019531 -3.125 3.429688 -2.988281 3.734375 -2.71875 C 4.046875 -2.457031 4.203125 -2.054688 4.203125 -1.515625 C 4.203125 -0.984375 4.054688 -0.566406 3.765625 -0.265625 C 3.484375 0.0351562 3.066406 0.1875 2.515625 0.1875 Z M 2.515625 0.1875 "/></g></g></g><g fill="#000000" fill-opacity="1"><g transform="translate(20.709159, 25.164472)"><g><path d="M 7.453125 -0.1875 C 8.066406 -0.1875 8.457031 -0.300781 8.625 -0.53125 C 8.800781 -0.757812 8.890625 -1.148438 8.890625 -1.703125 L 8.890625 -5.40625 L 7.671875 -5.40625 L 7.671875 -5.828125 L 13.171875 -5.828125 L 13.171875 -5.40625 L 12.4375 -5.40625 L 12.4375 -0.015625 L 12.140625 -0.015625 C 11.910156 -0.335938 11.585938 -0.5 11.171875 -0.5 C 10.992188 -0.5 10.460938 -0.382812 9.578125 -0.15625 C 8.691406 0.0703125 7.9375 0.1875 7.3125 0.1875 C 5.238281 0.1875 3.628906 -0.367188 2.484375 -1.484375 C 1.347656 -2.609375 0.78125 -4.289062 0.78125 -6.53125 C 0.78125 -8.78125 1.375 -10.515625 2.5625 -11.734375 C 3.757812 -12.960938 5.363281 -13.578125 7.375 -13.578125 C 8.144531 -13.578125 8.921875 -13.476562 9.703125 -13.28125 C 10.492188 -13.082031 10.953125 -12.984375 11.078125 -12.984375 C 11.203125 -12.984375 11.296875 -13.007812 11.359375 -13.0625 C 11.421875 -13.125 11.492188 -13.222656 11.578125 -13.359375 L 11.78125 -13.359375 L 11.9375 -9.21875 L 11.59375 -9.21875 C 10.96875 -10.457031 10.335938 -11.425781 9.703125 -12.125 C 9.078125 -12.832031 8.375 -13.1875 7.59375 -13.1875 C 5.644531 -13.1875 4.671875 -11.285156 4.671875 -7.484375 L 4.671875 -5.96875 C 4.671875 -4.0625 4.910156 -2.617188 5.390625 -1.640625 C 5.867188 -0.671875 6.554688 -0.1875 7.453125 -0.1875 Z M 7.453125 -0.1875 "/></g></g></g></svg>