<svg xmlns="http://www.w3.org/2000/svg" xmlns:xlink="http://www.w3.org/1999/xlink" width="200" zoomAndPan="magnify" viewBox="0 0 150 37.5" height="50" preserveAspectRatio="xMidYMid meet" version="1.0"><defs><g/></defs><g fill="#000000" fill-opacity="1"><g transform="translate(3.721859, 25.164474)"><g><path d="M 8.15625 -14.09375 C 6.050781 -14.09375 5 -12.0625 5 -8 L 5 -6.390625 C 5 -4.453125 5.273438 -2.9375 5.828125 -1.84375 C 6.390625 -0.75 7.21875 -0.203125 8.3125 -0.203125 C 9.800781 -0.203125 11.171875 -1.660156 12.421875 -4.578125 L 12.796875 -4.578125 L 12.65625 -0.015625 L 12.421875 -0.015625 C 12.347656 -0.171875 12.273438 -0.273438 12.203125 -0.328125 C 12.128906 -0.390625 12.03125 -0.421875 11.90625 -0.421875 C 11.78125 -0.421875 11.285156 -0.316406 10.421875 -0.109375 C 9.566406 0.0976562 8.695312 0.203125 7.8125 0.203125 C 5.59375 0.203125 3.875 -0.394531 2.65625 -1.59375 C 1.445312 -2.789062 0.84375 -4.585938 0.84375 -6.984375 C 0.84375 -9.390625 1.476562 -11.242188 2.75 -12.546875 C 4.019531 -13.859375 5.726562 -14.515625 7.875 -14.515625 C 8.707031 -14.515625 9.519531 -14.40625 10.3125 -14.1875 C 11.113281 -13.976562 11.582031 -13.875 11.71875 -13.875 C 11.851562 -13.875 11.953125 -13.90625 12.015625 -13.96875 C 12.085938 -14.03125 12.164062 -14.132812 12.25 -14.28125 L 12.46875 -14.28125 L 12.625 -9.859375 L 12.265625 -9.859375 C 11.648438 -11.234375 11.019531 -12.28125 10.375 -13 C 9.726562 -13.726562 8.988281 -14.09375 8.15625 -14.09375 Z M 8.15625 -14.09375 "/></g></g></g><g fill="#000000" fill-opacity="1"><g transform="translate(17.797832, 25.164474)"><g><path d="M 5.09375 -4.796875 L 5.6875 -4.796875 L 5.6875 -6.359375 C 5.6875 -7.660156 5.613281 -8.53125 5.46875 -8.96875 C 5.332031 -9.40625 5.0625 -9.625 4.65625 -9.625 C 4.40625 -9.625 4.179688 -9.5625 3.984375 -9.4375 C 3.785156 -9.3125 3.6875 -9.132812 3.6875 -8.90625 C 3.6875 -8.6875 3.726562 -8.457031 3.8125 -8.21875 L 4.328125 -8.21875 C 4.429688 -7.9375 4.484375 -7.59375 4.484375 -7.1875 C 4.484375 -6.789062 4.3125 -6.445312 3.96875 -6.15625 C 3.632812 -5.863281 3.207031 -5.71875 2.6875 -5.71875 C 1.519531 -5.71875 0.9375 -6.28125 0.9375 -7.40625 C 0.9375 -9.082031 2.359375 -9.921875 5.203125 -9.921875 C 6.816406 -9.921875 7.929688 -9.644531 8.546875 -9.09375 C 9.171875 -8.539062 9.484375 -7.53125 9.484375 -6.0625 L 9.484375 -1.921875 C 9.484375 -1.210938 9.679688 -0.859375 10.078125 -0.859375 C 10.546875 -0.859375 10.816406 -1.554688 10.890625 -2.953125 L 11.203125 -2.9375 C 11.148438 -1.738281 10.925781 -0.914062 10.53125 -0.46875 C 10.132812 -0.0195312 9.488281 0.203125 8.59375 0.203125 C 6.957031 0.203125 6.019531 -0.300781 5.78125 -1.3125 C 5.601562 -0.789062 5.335938 -0.40625 4.984375 -0.15625 C 4.628906 0.0820312 4.109375 0.203125 3.421875 0.203125 C 1.410156 0.203125 0.40625 -0.617188 0.40625 -2.265625 C 0.40625 -3.234375 0.789062 -3.894531 1.5625 -4.25 C 2.332031 -4.613281 3.507812 -4.796875 5.09375 -4.796875 Z M 4.28125 -2.28125 C 4.28125 -1.570312 4.316406 -1.113281 4.390625 -0.90625 C 4.472656 -0.707031 4.617188 -0.609375 4.828125 -0.609375 C 5.035156 -0.609375 5.226562 -0.78125 5.40625 -1.125 C 5.59375 -1.476562 5.6875 -1.960938 5.6875 -2.578125 L 5.6875 -4.46875 L 5.546875 -4.46875 C 4.703125 -4.46875 4.28125 -3.847656 4.28125 -2.609375 Z M 4.28125 -2.28125 "/></g></g></g><g fill="#000000" fill-opacity="1"><g transform="translate(28.997415, 25.164474)"><g><path d="M 0.203125 -9.71875 L 5.125 -9.71875 L 5.125 -7.84375 C 5.570312 -9.226562 6.5625 -9.921875 8.09375 -9.921875 C 9.625 -9.921875 10.550781 -9.1875 10.875 -7.71875 C 11.351562 -9.1875 12.351562 -9.921875 13.875 -9.921875 C 15.875 -9.921875 16.875 -8.785156 16.875 -6.515625 L 16.875 -0.375 L 18.015625 -0.375 L 18.015625 0 L 12.359375 0 L 12.359375 -0.375 L 13.078125 -0.375 L 13.078125 -7 C 13.078125 -8.03125 12.988281 -8.632812 12.8125 -8.8125 C 12.726562 -8.894531 12.617188 -8.9375 12.484375 -8.9375 C 12.085938 -8.9375 11.738281 -8.671875 11.4375 -8.140625 C 11.144531 -7.609375 11 -6.9375 11 -6.125 L 11 -0.375 L 11.734375 -0.375 L 11.734375 0 L 6.484375 0 L 6.484375 -0.375 L 7.203125 -0.375 L 7.203125 -7 C 7.203125 -8.03125 7.113281 -8.632812 6.9375 -8.8125 C 6.851562 -8.894531 6.742188 -8.9375 6.609375 -8.9375 C 6.234375 -8.9375 5.890625 -8.644531 5.578125 -8.0625 C 5.273438 -7.488281 5.125 -6.800781 5.125 -6 L 5.125 -0.375 L 5.859375 -0.375 L 5.859375 0 L 0.203125 0 L 0.203125 -0.375 L 1.328125 -0.375 L 1.328125 -9.34375 L 0.203125 -9.34375 Z M 0.203125 -9.71875 "/></g></g></g><g fill="#000000" fill-opacity="1"><g transform="translate(47.11258, 25.164474)"><g><path d="M 3.203125 -11.125 C 2.484375 -11.125 1.96875 -11.304688 1.65625 -11.671875 C 1.351562 -12.035156 1.203125 -12.488281 1.203125 -13.03125 C 1.203125 -13.582031 1.367188 -14.035156 1.703125 -14.390625 C 2.035156 -14.742188 2.539062 -14.921875 3.21875 -14.921875 C 3.90625 -14.921875 4.425781 -14.757812 4.78125 -14.4375 C 5.132812 -14.113281 5.3125 -13.65625 5.3125 -13.0625 C 5.3125 -12.476562 5.140625 -12.007812 4.796875 -11.65625 C 4.453125 -11.300781 3.921875 -11.125 3.203125 -11.125 Z M 0.125 -9.71875 L 5.125 -9.71875 L 5.125 -0.375 L 6.265625 -0.375 L 6.265625 0 L 0.203125 0 L 0.203125 -0.375 L 1.328125 -0.375 L 1.328125 -9.34375 L 0.125 -9.34375 Z M 0.125 -9.71875 "/></g></g></g><g fill="#000000" fill-opacity="1"><g transform="translate(53.579368, 25.164474)"><g><path d="M 0.125 -15.296875 L 5.125 -15.296875 L 5.125 -0.375 L 6.265625 -0.375 L 6.265625 0 L 0.203125 0 L 0.203125 -0.375 L 1.328125 -0.375 L 1.328125 -14.9375 L 0.125 -14.9375 Z M 0.125 -15.296875 "/></g></g></g><g fill="#000000" fill-opacity="1"><g transform="translate(60.025761, 25.164474)"><g><path d="M 6.796875 -4.015625 L 6.796875 -5.75 C 6.796875 -7.070312 6.722656 -8.035156 6.578125 -8.640625 C 6.429688 -9.242188 6.101562 -9.546875 5.59375 -9.546875 C 5.289062 -9.546875 5.046875 -9.460938 4.859375 -9.296875 C 4.679688 -9.128906 4.550781 -8.847656 4.46875 -8.453125 C 4.34375 -7.835938 4.28125 -6.90625 4.28125 -5.65625 L 4.28125 -4.0625 C 4.28125 -2.582031 4.320312 -1.691406 4.40625 -1.390625 C 4.5 -1.085938 4.59375 -0.84375 4.6875 -0.65625 C 4.84375 -0.320312 5.140625 -0.15625 5.578125 -0.15625 C 6.097656 -0.15625 6.441406 -0.460938 6.609375 -1.078125 C 6.734375 -1.515625 6.796875 -2.492188 6.796875 -4.015625 Z M 5.53125 0.203125 C 3.832031 0.203125 2.546875 -0.226562 1.671875 -1.09375 C 0.804688 -1.96875 0.375 -3.21875 0.375 -4.84375 C 0.375 -6.46875 0.835938 -7.71875 1.765625 -8.59375 C 2.691406 -9.476562 4 -9.921875 5.6875 -9.921875 C 7.375 -9.921875 8.632812 -9.515625 9.46875 -8.703125 C 10.300781 -7.890625 10.71875 -6.65625 10.71875 -5 C 10.71875 -1.53125 8.988281 0.203125 5.53125 0.203125 Z M 5.53125 0.203125 "/></g></g></g><g fill="#000000" fill-opacity="1"><g transform="translate(71.102945, 25.164474)"><g/></g></g><g fill="#000000" fill-opacity="1"><g transform="translate(74.77494, 25.164474)"><g><path d="M 7.953125 -0.203125 C 8.617188 -0.203125 9.046875 -0.320312 9.234375 -0.5625 C 9.421875 -0.8125 9.515625 -1.226562 9.515625 -1.8125 L 9.515625 -5.78125 L 8.203125 -5.78125 L 8.203125 -6.21875 L 14.078125 -6.21875 L 14.078125 -5.78125 L 13.28125 -5.78125 L 13.28125 -0.015625 L 12.984375 -0.015625 C 12.734375 -0.359375 12.382812 -0.53125 11.9375 -0.53125 C 11.75 -0.53125 11.179688 -0.40625 10.234375 -0.15625 C 9.285156 0.0820312 8.476562 0.203125 7.8125 0.203125 C 5.59375 0.203125 3.875 -0.394531 2.65625 -1.59375 C 1.445312 -2.789062 0.84375 -4.585938 0.84375 -6.984375 C 0.84375 -9.390625 1.476562 -11.242188 2.75 -12.546875 C 4.019531 -13.859375 5.726562 -14.515625 7.875 -14.515625 C 8.707031 -14.515625 9.539062 -14.40625 10.375 -14.1875 C 11.207031 -13.976562 11.691406 -13.875 11.828125 -13.875 C 11.972656 -13.875 12.078125 -13.90625 12.140625 -13.96875 C 12.210938 -14.03125 12.285156 -14.132812 12.359375 -14.28125 L 12.59375 -14.28125 L 12.75 -9.859375 L 12.390625 -9.859375 C 11.722656 -11.171875 11.050781 -12.203125 10.375 -12.953125 C 9.695312 -13.710938 8.945312 -14.09375 8.125 -14.09375 C 6.039062 -14.09375 5 -12.0625 5 -8 L 5 -6.390625 C 5 -4.347656 5.253906 -2.804688 5.765625 -1.765625 C 6.273438 -0.722656 7.003906 -0.203125 7.953125 -0.203125 Z M 7.953125 -0.203125 "/></g></g></g><g fill="#000000" fill-opacity="1"><g transform="translate(89.524119, 25.164474)"><g><path d="M 5.09375 -4.796875 L 5.6875 -4.796875 L 5.6875 -6.359375 C 5.6875 -7.660156 5.613281 -8.53125 5.46875 -8.96875 C 5.332031 -9.40625 5.0625 -9.625 4.65625 -9.625 C 4.40625 -9.625 4.179688 -9.5625 3.984375 -9.4375 C 3.785156 -9.3125 3.6875 -9.132812 3.6875 -8.90625 C 3.6875 -8.6875 3.726562 -8.457031 3.8125 -8.21875 L 4.328125 -8.21875 C 4.429688 -7.9375 4.484375 -7.59375 4.484375 -7.1875 C 4.484375 -6.789062 4.3125 -6.445312 3.96875 -6.15625 C 3.632812 -5.863281 3.207031 -5.71875 2.6875 -5.71875 C 1.519531 -5.71875 0.9375 -6.28125 0.9375 -7.40625 C 0.9375 -9.082031 2.359375 -9.921875 5.203125 -9.921875 C 6.816406 -9.921875 7.929688 -9.644531 8.546875 -9.09375 C 9.171875 -8.539062 9.484375 -7.53125 9.484375 -6.0625 L 9.484375 -1.921875 C 9.484375 -1.210938 9.679688 -0.859375 10.078125 -0.859375 C 10.546875 -0.859375 10.816406 -1.554688 10.890625 -2.953125 L 11.203125 -2.9375 C 11.148438 -1.738281 10.925781 -0.914062 10.53125 -0.46875 C 10.132812 -0.0195312 9.488281 0.203125 8.59375 0.203125 C 6.957031 0.203125 6.019531 -0.300781 5.78125 -1.3125 C 5.601562 -0.789062 5.335938 -0.40625 4.984375 -0.15625 C 4.628906 0.0820312 4.109375 0.203125 3.421875 0.203125 C 1.410156 0.203125 0.40625 -0.617188 0.40625 -2.265625 C 0.40625 -3.234375 0.789062 -3.894531 1.5625 -4.25 C 2.332031 -4.613281 3.507812 -4.796875 5.09375 -4.796875 Z M 4.28125 -2.28125 C 4.28125 -1.570312 4.316406 -1.113281 4.390625 -0.90625 C 4.472656 -0.707031 4.617188 -0.609375 4.828125 -0.609375 C 5.035156 -0.609375 5.226562 -0.78125 5.40625 -1.125 C 5.59375 -1.476562 5.6875 -1.960938 5.6875 -2.578125 L 5.6875 -4.46875 L 5.546875 -4.46875 C 4.703125 -4.46875 4.28125 -3.847656 4.28125 -2.609375 Z M 4.28125 -2.28125 "/></g></g></g><g fill="#000000" fill-opacity="1"><g transform="translate(100.723702, 25.164474)"><g><path d="M 7.65625 -5.484375 C 7.65625 -6.890625 7.585938 -7.832031 7.453125 -8.3125 C 7.316406 -8.800781 7.050781 -9.046875 6.65625 -9.046875 C 6.257812 -9.046875 5.90625 -8.800781 5.59375 -8.3125 C 5.28125 -7.820312 5.125 -7.144531 5.125 -6.28125 L 5.125 -2.484375 C 5.125 -1.898438 5.242188 -1.40625 5.484375 -1 C 5.722656 -0.59375 6.0625 -0.390625 6.5 -0.390625 C 6.9375 -0.390625 7.238281 -0.6875 7.40625 -1.28125 C 7.570312 -1.882812 7.65625 -2.929688 7.65625 -4.421875 Z M 5.125 -15.296875 L 5.125 -8.15625 C 5.632812 -9.332031 6.519531 -9.921875 7.78125 -9.921875 C 10.320312 -9.921875 11.59375 -8.226562 11.59375 -4.84375 C 11.59375 -3.113281 11.238281 -1.835938 10.53125 -1.015625 C 9.832031 -0.203125 8.785156 0.203125 7.390625 0.203125 C 6.679688 0.203125 6.140625 0.09375 5.765625 -0.125 C 5.390625 -0.34375 5.132812 -0.703125 5 -1.203125 L 4.859375 0 L 0.203125 0 L 0.203125 -0.375 L 1.328125 -0.375 L 1.328125 -14.9375 L 0.203125 -14.9375 L 0.203125 -15.296875 Z M 5.125 -15.296875 "/></g></g></g><g fill="#000000" fill-opacity="1"><g transform="translate(112.718879, 25.164474)"><g><path d="M 7.015625 -9.140625 C 6.515625 -9.140625 6.070312 -8.8125 5.6875 -8.15625 C 5.3125 -7.507812 5.125 -6.738281 5.125 -5.84375 L 5.125 -0.375 L 6.578125 -0.375 L 6.578125 0 L 0.203125 0 L 0.203125 -0.375 L 1.328125 -0.375 L 1.328125 -9.34375 L 0.203125 -9.34375 L 0.203125 -9.71875 L 5.125 -9.71875 L 5.125 -7.75 C 5.300781 -8.445312 5.640625 -8.984375 6.140625 -9.359375 C 6.640625 -9.734375 7.207031 -9.921875 7.84375 -9.921875 C 8.488281 -9.921875 9.007812 -9.738281 9.40625 -9.375 C 9.8125 -9.007812 10.015625 -8.5 10.015625 -7.84375 C 10.015625 -7.1875 9.863281 -6.679688 9.5625 -6.328125 C 9.269531 -5.972656 8.8125 -5.796875 8.1875 -5.796875 C 7.570312 -5.796875 7.117188 -6 6.828125 -6.40625 C 6.535156 -6.8125 6.5 -7.375 6.71875 -8.09375 L 7.453125 -8.09375 C 7.785156 -8.789062 7.640625 -9.140625 7.015625 -9.140625 Z M 7.015625 -9.140625 "/></g></g></g><g fill="#000000" fill-opacity="1"><g transform="translate(122.816859, 25.164474)"><g><path d="M 3.203125 -11.125 C 2.484375 -11.125 1.96875 -11.304688 1.65625 -11.671875 C 1.351562 -12.035156 1.203125 -12.488281 1.203125 -13.03125 C 1.203125 -13.582031 1.367188 -14.035156 1.703125 -14.390625 C 2.035156 -14.742188 2.539062 -14.921875 3.21875 -14.921875 C 3.90625 -14.921875 4.425781 -14.757812 4.78125 -14.4375 C 5.132812 -14.113281 5.3125 -13.65625 5.3125 -13.0625 C 5.3125 -12.476562 5.140625 -12.007812 4.796875 -11.65625 C 4.453125 -11.300781 3.921875 -11.125 3.203125 -11.125 Z M 0.125 -9.71875 L 5.125 -9.71875 L 5.125 -0.375 L 6.265625 -0.375 L 6.265625 0 L 0.203125 0 L 0.203125 -0.375 L 1.328125 -0.375 L 1.328125 -9.34375 L 0.125 -9.34375 Z M 0.125 -9.71875 "/></g></g></g><g fill="#000000" fill-opacity="1"><g transform="translate(129.283647, 25.164474)"><g><path d="M 5.578125 0.203125 C 3.816406 0.203125 2.5 -0.25 1.625 -1.15625 C 0.75 -2.0625 0.3125 -3.316406 0.3125 -4.921875 C 0.3125 -6.535156 0.800781 -7.769531 1.78125 -8.625 C 2.769531 -9.488281 4.023438 -9.921875 5.546875 -9.921875 C 8.640625 -9.921875 10.125 -8.367188 10 -5.265625 L 4.25 -5.265625 L 4.25 -4.46875 C 4.25 -3.132812 4.414062 -2.125 4.75 -1.4375 C 5.09375 -0.757812 5.6875 -0.421875 6.53125 -0.421875 C 8.101562 -0.421875 9.132812 -1.265625 9.625 -2.953125 L 10 -2.890625 C 9.738281 -1.910156 9.269531 -1.148438 8.59375 -0.609375 C 7.925781 -0.0664062 6.921875 0.203125 5.578125 0.203125 Z M 4.265625 -5.671875 L 6.359375 -5.671875 L 6.359375 -6.671875 C 6.359375 -7.773438 6.296875 -8.523438 6.171875 -8.921875 C 6.046875 -9.328125 5.785156 -9.53125 5.390625 -9.53125 C 5.003906 -9.53125 4.71875 -9.316406 4.53125 -8.890625 C 4.351562 -8.460938 4.265625 -7.722656 4.265625 -6.671875 Z M 4.265625 -5.671875 "/></g></g></g><g fill="#000000" fill-opacity="1"><g transform="translate(139.810024, 25.164474)"><g><path d="M 0.125 -15.296875 L 5.125 -15.296875 L 5.125 -0.375 L 6.265625 -0.375 L 6.265625 0 L 0.203125 0 L 0.203125 -0.375 L 1.328125 -0.375 L 1.328125 -14.9375 L 0.125 -14.9375 Z M 0.125 -15.296875 "/></g></g></g></svg>